<?xml version="1.0" standalone="no"?>
<!DOCTYPE svg PUBLIC "-//W3C//DTD SVG 20010904//EN"
 "http://www.w3.org/TR/2001/REC-SVG-20010904/DTD/svg10.dtd">
<svg version="1.0" xmlns="http://www.w3.org/2000/svg"
 width="1379.000000pt" height="754.000000pt" viewBox="0 0 1379.000000 754.000000"
 preserveAspectRatio="xMidYMid meet">

<g transform="translate(0.000000,754.000000) scale(0.100000,-0.100000)"
fill="#000000" stroke="none">
<path d="M473 7501 c-219 -64 -381 -231 -438 -451 -13 -49 -16 -94 -13 -180 5
-138 33 -229 102 -330 30 -43 1092 -1112 3213 -3231 2474 -2472 3181 -3174
3228 -3202 114 -67 173 -82 330 -82 157 0 216 15 330 82 84 50 6373 6333 6444
6439 74 110 96 191 96 354 0 116 -4 144 -24 200 -65 183 -208 326 -391 391
-56 20 -84 24 -200 24 -163 0 -244 -22 -354 -96 -53 -36 -826 -803 -2986
-2963 l-2915 -2916 -2930 2928 c-1905 1905 -2948 2940 -2982 2961 -100 62
-183 85 -323 88 -98 2 -139 -1 -187 -16z"/>
</g>
</svg>
