<?xml version="1.0" standalone="no"?>
<!DOCTYPE svg PUBLIC "-//W3C//DTD SVG 20010904//EN"
 "http://www.w3.org/TR/2001/REC-SVG-20010904/DTD/svg10.dtd">
<svg version="1.0" xmlns="http://www.w3.org/2000/svg"
 width="2057.000000pt" height="2057.000000pt" viewBox="0 0 2057.000000 2057.000000"
 preserveAspectRatio="xMidYMid meet">

<g transform="translate(0.000000,2057.000000) scale(0.100000,-0.100000)"
fill="#000000" stroke="none">
<path d="M9840 20504 c-30 -2 -134 -8 -230 -14 -1030 -64 -2103 -304 -3067
-686 -1006 -398 -1955 -959 -2768 -1634 -468 -389 -986 -907 -1375 -1375 -778
-937 -1405 -2057 -1796 -3210 -292 -860 -454 -1670 -526 -2625 -18 -235 -18
-1115 0 -1350 72 -963 234 -1768 532 -2645 385 -1133 1019 -2262 1790 -3190
389 -468 907 -986 1375 -1375 937 -778 2057 -1405 3210 -1796 860 -292 1670
-454 2625 -526 235 -18 1115 -18 1350 0 955 72 1765 234 2625 526 1153 391
2273 1018 3210 1796 468 389 986 907 1375 1375 1281 1542 2088 3467 2289 5465
40 392 46 536 46 1045 0 509 -6 653 -46 1045 -116 1151 -430 2274 -930 3332
-353 746 -834 1501 -1359 2133 -389 468 -907 986 -1375 1375 -937 778 -2057
1405 -3210 1796 -837 284 -1630 446 -2545 520 -181 14 -1051 28 -1200 18z
m1175 -918 c1624 -138 3102 -651 4430 -1537 1596 -1065 2818 -2577 3520 -4354
340 -859 539 -1722 622 -2695 25 -293 25 -1136 0 -1430 -140 -1641 -649 -3113
-1538 -4445 -1065 -1596 -2577 -2818 -4354 -3520 -859 -340 -1722 -539 -2695
-622 -293 -25 -1136 -25 -1430 0 -1641 140 -3113 649 -4445 1538 -1596 1065
-2818 2577 -3520 4354 -340 859 -539 1725 -622 2695 -25 293 -25 1137 0 1430
140 1642 649 3112 1538 4445 1065 1596 2577 2818 4354 3520 944 373 1869 573
2960 639 164 10 1001 -3 1180 -18z"/>
<path d="M10090 17840 c-895 -58 -1716 -492 -2263 -1195 -536 -689 -755 -1552
-616 -2425 181 -1139 1016 -2106 2124 -2460 825 -263 1749 -167 2492 260 534
308 974 772 1246 1315 400 802 436 1747 96 2577 -356 870 -1104 1545 -2004
1808 -336 98 -733 142 -1075 120z m505 -916 c637 -89 1230 -476 1572 -1027
534 -862 416 -1969 -287 -2701 -322 -335 -734 -558 -1193 -645 -638 -122
-1313 56 -1817 477 -780 652 -1021 1742 -586 2647 185 384 448 683 806 917
306 200 679 324 1060 352 93 6 329 -4 445 -20z"/>
<path d="M9845 10719 c-2018 -152 -3820 -1363 -4730 -3179 -384 -764 -581
-1548 -611 -2430 -7 -220 1 -275 57 -381 61 -113 185 -198 324 -222 136 -23
290 29 388 132 104 109 123 174 131 446 34 1115 425 2141 1144 3005 125 149
455 480 602 601 1113 923 2513 1308 3930 1079 1265 -205 2430 -935 3185 -1995
399 -560 675 -1201 809 -1875 57 -287 95 -651 96 -911 0 -162 32 -251 127
-350 99 -104 249 -154 389 -131 194 32 339 174 375 367 13 70 6 346 -16 592
-157 1748 -1093 3321 -2560 4300 -827 552 -1785 880 -2780 953 -162 12 -699
11 -860 -1z"/>
</g>
</svg>
