<?xml version="1.0" standalone="no"?>
<!DOCTYPE svg PUBLIC "-//W3C//DTD SVG 20010904//EN"
 "http://www.w3.org/TR/2001/REC-SVG-20010904/DTD/svg10.dtd">
<svg version="1.0" xmlns="http://www.w3.org/2000/svg"
 width="808.000000pt" height="632.000000pt" viewBox="0 0 808.000000 632.000000"
 preserveAspectRatio="xMidYMid meet">

<g transform="translate(0.000000,632.000000) scale(0.100000,-0.100000)"
fill="#000000" stroke="none">
<path d="M1704 4036 c-308 -76 -546 -297 -644 -596 -47 -144 -58 -328 -26
-467 66 -296 267 -538 539 -649 117 -47 208 -64 352 -64 196 0 362 53 520 165
408 290 497 865 198 1277 -88 122 -262 251 -411 305 -159 58 -365 70 -528 29z
m391 -470 c135 -25 260 -63 361 -110 131 -62 162 -111 108 -175 -34 -41 -66
-40 -152 3 -77 39 -190 76 -312 102 -69 15 -128 19 -315 19 -207 0 -239 -3
-322 -23 -51 -13 -102 -21 -113 -17 -60 19 -81 102 -37 143 25 24 139 56 252
71 103 14 423 6 530 -13z m-80 -311 c154 -27 372 -112 425 -165 26 -26 25 -68
-2 -97 -30 -32 -57 -29 -141 13 -243 123 -560 156 -824 86 -61 -16 -63 -16
-90 4 -40 30 -44 84 -8 112 80 63 411 87 640 47z m44 -310 c123 -33 254 -95
277 -130 16 -25 16 -30 3 -54 -22 -39 -53 -37 -148 8 -47 22 -122 50 -166 61
-144 38 -362 37 -542 -2 -47 -10 -55 -9 -73 7 -25 22 -26 67 -2 88 15 14 120
38 222 51 19 2 103 3 185 1 122 -3 168 -9 244 -30z"/>
<path d="M5679 3614 c-33 -35 -33 -95 1 -128 40 -39 99 -38 136 2 22 23 25 34
21 72 -6 56 -34 80 -91 80 -33 0 -48 -6 -67 -26z"/>
<path d="M6095 3595 c-79 -30 -115 -88 -115 -182 l0 -43 -40 0 -40 0 0 -67 0
-68 37 0 38 0 3 -247 2 -248 75 0 75 0 0 250 0 250 68 0 68 0 103 -247 c90
-215 101 -249 91 -269 -21 -38 -54 -50 -107 -36 -25 7 -46 11 -47 10 -1 -2
-14 -26 -29 -54 l-27 -52 41 -16 c94 -38 182 -29 243 24 37 33 61 83 145 301
32 85 84 219 115 299 31 80 58 149 59 153 1 5 -33 9 -75 10 l-77 2 -70 -202
c-39 -112 -71 -207 -71 -213 0 -5 -6 -10 -12 -10 -7 0 -33 53 -57 118 -24 64
-60 159 -80 211 l-36 94 -122 -2 c-74 -1 -124 2 -128 8 -3 6 -1 29 5 51 14 54
43 67 111 54 l49 -11 0 63 c0 71 -2 73 -95 80 -39 2 -74 -1 -100 -11z"/>
<path d="M3347 3570 c-54 -14 -110 -45 -146 -80 -40 -41 -65 -125 -56 -188 17
-117 78 -164 280 -217 109 -29 136 -42 161 -80 23 -36 8 -83 -35 -112 -26 -18
-48 -23 -95 -23 -82 0 -121 12 -197 61 l-63 41 -18 -23 c-10 -13 -30 -37 -44
-52 -24 -28 -25 -30 -8 -48 9 -10 21 -19 26 -19 5 0 18 -9 29 -19 33 -30 150
-69 231 -77 138 -12 253 34 305 123 24 41 28 59 28 123 0 60 -5 83 -23 111
-39 64 -90 89 -315 155 -95 28 -130 69 -107 128 31 84 176 88 302 9 21 -13 40
-23 42 -23 7 0 76 99 76 110 0 15 -76 60 -137 81 -65 22 -184 32 -236 19z"/>
<path d="M5280 3451 l0 -80 -37 -3 -38 -3 0 -65 0 -65 38 3 37 4 0 -179 c0
-193 8 -244 47 -285 45 -47 164 -60 239 -26 22 10 24 18 24 75 0 60 -1 63 -19
53 -11 -5 -40 -10 -64 -10 -74 0 -78 10 -75 201 l3 164 75 1 c41 0 76 3 78 7
1 4 2 34 2 67 l0 60 -80 0 -80 0 0 80 0 80 -75 0 -75 0 0 -79z"/>
<path d="M4091 3366 c-24 -8 -61 -29 -82 -46 l-39 -31 0 25 c0 51 -7 56 -81
56 l-69 0 0 -405 0 -406 73 3 72 3 0 123 c0 124 6 142 36 106 22 -27 89 -55
144 -61 77 -8 152 17 213 72 159 143 126 447 -60 541 -60 31 -148 39 -207 20z
m118 -141 c44 -22 78 -70 90 -124 31 -144 -75 -264 -202 -230 -150 40 -178
268 -43 350 38 23 115 25 155 4z"/>
<path d="M4759 3367 c-157 -45 -247 -171 -237 -336 8 -125 74 -222 187 -275
71 -32 207 -30 282 5 71 34 125 87 158 158 35 76 37 191 3 267 -28 62 -90 124
-158 158 -63 31 -168 42 -235 23z m171 -147 c48 -25 77 -64 91 -126 41 -179
-169 -306 -295 -179 -87 87 -70 244 34 304 46 27 118 27 170 1z"/>
<path d="M5670 3055 l0 -315 75 0 75 0 0 315 0 315 -75 0 -75 0 0 -315z"/>
<path d="M6940 3281 c0 -28 5 -53 10 -56 6 -3 10 3 10 14 0 27 17 27 40 -1 10
-13 22 -20 26 -16 4 4 1 14 -5 22 -9 11 -9 19 0 34 18 29 -4 52 -47 52 l-34 0
0 -49z m65 14 c0 -5 -10 -11 -22 -13 -16 -2 -23 2 -23 13 0 11 7 15 23 13 12
-2 22 -7 22 -13z"/>
</g>
</svg>
